<svg xmlns="http://www.w3.org/2000/svg" viewBox="0 0 600 400">
  <rect width="600" height="400" fill="#0F1F30"/>
  <g stroke="#2DD4BF" stroke-opacity="0.2" stroke-width="1">
    <line x1="0" y1="40" x2="600" y2="40"/><line x1="0" y1="80" x2="600" y2="80"/>
    <line x1="0" y1="120" x2="600" y2="120"/><line x1="0" y1="160" x2="600" y2="160"/>
    <line x1="0" y1="200" x2="600" y2="200"/><line x1="0" y1="240" x2="600" y2="240"/>
    <line x1="0" y1="280" x2="600" y2="280"/><line x1="0" y1="320" x2="600" y2="320"/>
    <line x1="0" y1="360" x2="600" y2="360"/>
    <line x1="40" y1="0" x2="40" y2="400"/><line x1="80" y1="0" x2="80" y2="400"/>
    <line x1="120" y1="0" x2="120" y2="400"/><line x1="160" y1="0" x2="160" y2="400"/>
    <line x1="200" y1="0" x2="200" y2="400"/><line x1="240" y1="0" x2="240" y2="400"/>
    <line x1="280" y1="0" x2="280" y2="400"/><line x1="320" y1="0" x2="320" y2="400"/>
    <line x1="360" y1="0" x2="360" y2="400"/><line x1="400" y1="0" x2="400" y2="400"/>
    <line x1="440" y1="0" x2="440" y2="400"/><line x1="480" y1="0" x2="480" y2="400"/>
    <line x1="520" y1="0" x2="520" y2="400"/><line x1="560" y1="0" x2="560" y2="400"/>
  </g>
  <polygon points="150,320 150,180 300,100 450,180 450,320" fill="none" stroke="#38BDF8" stroke-width="3"/>
  <line x1="150" y1="320" x2="450" y2="320" stroke="#F5A524" stroke-width="3"/>
  <line x1="300" y1="100" x2="300" y2="320" stroke="#38BDF8" stroke-width="2" stroke-dasharray="6 4"/>
  <text x="300" y="380" fill="#9FB0B8" font-family="monospace" font-size="13" text-anchor="middle">PROJECT IMAGE — REPLACE VIA ADMIN</text>
</svg>
